<?xml version="1.0" encoding="utf-8"?>
<!-- Generator: Adobe Illustrator 22.1.0, SVG Export Plug-In . SVG Version: 6.00 Build 0)  -->
<svg version="1.1" id="Layer_1" xmlns="http://www.w3.org/2000/svg" xmlns:xlink="http://www.w3.org/1999/xlink" x="0px" y="0px"
	 viewBox="0 0 512 172" style="enable-background:new 0 0 512 172;" xml:space="preserve">
<style type="text/css">
	.st0{fill:#EF4223;}
	.st1{fill:#34A3DC;}
	.st2{fill:#99CA46;}
	.st3{fill:#9E4334;}
	.st4{fill:#26974F;}
	.st5{fill:#FABFB7;}
	.st6{fill:#C51A1E;}
	.st7{fill:#5C81A7;}
	.st8{fill:#FFF32A;}
	.st9{fill:#EE3D8A;}
	.st10{fill:#9C2584;}
	.st11{fill:#FFF000;}
	.st12{fill:#3EA4DD;}
	.st13{fill:#5B9A45;}
	.st14{fill:#A26439;}
	.st15{fill:#E82F81;}
	.st16{fill:#99CA47;}
	.st17{fill:#99643E;}
	.st18{fill:#685B30;}
	.st19{fill:#495043;}
	.st20{fill:#96D5D2;}
	.st21{fill:#33A3DC;}
	.st22{fill:#F7941D;}
	.st23{fill:#F49200;}
	.st24{fill:#2AB9CB;}
	.st25{fill:#677230;}
	.st26{fill:#E93081;}
	.st27{fill:#E5200C;}
	.st28{fill:#6D3229;}
	.st29{fill:#A2C72D;}
	.st30{fill:#F9C7C1;}
	.st31{fill:#FFF32B;}
	.st32{fill:#C36928;}
	.st33{fill:#F7931E;}
	.st34{fill:#89181A;}
	.st35{fill:#E6310B;}
	.st36{fill:#6D372A;}
	.st37{fill:#158F41;}
	.st38{fill:#3D2F82;}
	.st39{fill:#9E1779;}
	.st40{fill:#382272;}
	.st41{fill:#422373;}
	.st42{fill:#009C57;}
	.st43{fill:#FFEF00;}
	.st44{fill:#E7321E;}
	.st45{fill:#28B9CB;}
	.st46{fill:#9B2584;}
	.st47{fill:#9E2D33;}
	.st48{fill:#8FB63E;}
	.st49{fill:#A74333;}
	.st50{fill:#58AA47;}
	.st51{fill:#5A3438;}
	.st52{fill:#832C73;}
	.st53{fill:#C4161C;}
	.st54{fill:#3CA4DD;}
	.st55{fill:#2D2C80;}
	.st56{fill:#94783A;}
	.st57{fill:#1DBECB;}
	.st58{fill:#00A14B;}
</style>
<g>
	<g>
		<rect x="20.2" y="26.9" class="st0" width="9" height="39.3"/>
		<path class="st1" d="M40.9,22.4C40.9,22.4,40.9,22.4,40.9,22.4c2.5,0,4.5,2,4.5,4.5c0,2.5-2,4.5-4.5,4.5l0,0
			c1.1,0,2.2,0.2,3.2,0.6c1.4,0.6,2.7,1.6,3.6,2.9c0.4,0.6,0.8,1.4,1,2.1c0.2,0.8,0.4,1.6,0.4,2.4c0,1.1-0.2,2.2-0.6,3.2
			c-0.6,1.4-1.6,2.7-2.9,3.6c-0.6,0.4-1.4,0.8-2.1,1c-0.8,0.2-1.6,0.4-2.4,0.4c2.5,0,4.5,2,4.5,4.5c0,2.5-2,4.5-4.5,4.5l0,0
			c0,0,0,0,0,0c2.4,0,4.6-0.5,6.7-1.3c3.1-1.3,5.7-3.5,7.5-6.2c0.9-1.4,1.7-2.9,2.2-4.5c0.5-1.6,0.8-3.3,0.8-5.1
			c0-2.4-0.5-4.6-1.3-6.7c-1.3-3.1-3.5-5.7-6.2-7.5c-1.4-0.9-2.9-1.7-4.5-2.2C44.4,22.6,42.7,22.4,40.9,22.4"/>
		<line class="st2" x1="40.9" y1="47.6" x2="40.9" y2="47.6"/>
		<rect x="29.2" y="47.6" class="st2" width="11.7" height="9"/>
		<path class="st3" d="M29.2,47.6h-4.5c-2.5,0-4.5,2-4.5,4.5s2,4.5,4.5,4.5h4.5V47.6"/>
		<path class="st4" d="M40.9,47.6L40.9,47.6c-2.5,0-4.5,2-4.5,4.5s2,4.5,4.5,4.5l0,0c2.5,0,4.5-2,4.5-4.5S43.4,47.6,40.9,47.6"/>
		<path class="st5" d="M24.7,22.4"/>
		<line class="st5" x1="40.9" y1="22.4" x2="40.9" y2="22.4"/>
		<polygon class="st5" points="40.9,22.4 24.7,22.4 29.2,31.4 40.9,31.4 		"/>
		<path class="st6" d="M20.2,26.9c0,2.5,2,4.5,4.5,4.5h4.5v-4.5L20.2,26.9z"/>
		<path class="st7" d="M40.9,22.4L40.9,22.4c-2.5,0-4.5,2-4.5,4.5c0,2.5,2,4.5,4.5,4.5l0,0c2.5,0,4.5-2,4.5-4.5
			C45.4,24.4,43.4,22.4,40.9,22.4"/>
		<path class="st8" d="M20.2,26.9c0-2.5,2-4.5,4.5-4.5c2.5,0,4.5,2,4.5,4.5s-2,4.5-4.5,4.5C22.2,31.4,20.2,29.4,20.2,26.9L20.2,26.9
			z"/>
		<path class="st9" d="M36.4,26.9c0-2.5,2-4.5,4.5-4.5c2.5,0,4.5,2,4.5,4.5s-2,4.5-4.5,4.5C38.4,31.4,36.4,29.4,36.4,26.9L36.4,26.9
			z"/>
		<path class="st10" d="M20.2,66.2c0-2.5,2-4.5,4.5-4.5c2.5,0,4.5,2,4.5,4.5c0,2.5-2,4.5-4.5,4.5C22.2,70.7,20.2,68.7,20.2,66.2z"/>
	</g>
	<g>
		<path class="st11" d="M66,66.2c0,2.5,2,4.5,4.5,4.5l0,0C68.1,70.7,66,68.7,66,66.2V26.9h9v34.8"/>
		<polyline class="st12" points="75.1,61.7 93.8,61.7 93.8,70.7 70.6,70.7 		"/>
		<path class="st13" d="M75.1,61.7h-4.5c-2.5,0-4.5,2-4.5,4.5c0,2.5,2,4.5,4.5,4.5l0,0c2.5,0,4.5-2,4.5-4.5V61.7"/>
		<path class="st14" d="M66,26.9c0-2.5,2-4.5,4.5-4.5c2.5,0,4.5,2,4.5,4.5s-2,4.5-4.5,4.5C68.1,31.4,66,29.4,66,26.9L66,26.9z"/>
		
			<ellipse transform="matrix(0.9997 -2.378920e-02 2.378920e-02 0.9997 -1.5488 2.2511)" class="st15" cx="93.8" cy="66.2" rx="4.5" ry="4.5"/>
	</g>
	<g>
		<rect x="96.1" y="42" transform="matrix(0.4529 -0.8916 0.8916 0.4529 23.1232 130.7935)" class="st16" width="44.1" height="9"/>
		
			<rect x="133.6" y="24.5" transform="matrix(0.8916 -0.4529 0.4529 0.8916 -6.1083 67.5955)" class="st17" width="9" height="44.1"/>
		<path class="st18" d="M128.1,22.4c-3.4,0-5.6,3.6-4,6.6l4,7.9l4-7.9C133.7,25.9,131.5,22.4,128.1,22.4"/>
		<path class="st1" d="M134.8,50h-7.6c-2.5,0-4.5,2-4.5,4.5s2,4.5,4.5,4.5h12.2L134.8,50 M146.2,52.4l0.1,0.2
			C146.2,52.5,146.2,52.5,146.2,52.4"/>
		<path class="st19" d="M142.2,50h-7.4c0,0,0,0,0,0l4.6,9c0,0,0,0,0,0h2.6c2.5,0,4.6-2,4.7-4.5C146.7,52.1,144.7,50,142.2,50"/>
		<path class="st20" d="M122.7,54.6c0-2.5,2-4.5,4.5-4.5s4.5,2,4.5,4.5c0,2.5-2,4.5-4.5,4.5S122.7,57.1,122.7,54.6L122.7,54.6z"/>
		<path class="st21" d="M103.6,66.2c0-2.5,2-4.5,4.5-4.5c2.5,0,4.5,2,4.5,4.5c0,2.5-2,4.5-4.5,4.5C105.6,70.7,103.6,68.7,103.6,66.2
			L103.6,66.2z"/>
		<path class="st22" d="M143.6,66.2c0-2.5,2-4.5,4.5-4.5c2.5,0,4.5,2,4.5,4.5c0,2.5-2,4.5-4.5,4.5C145.6,70.7,143.6,68.7,143.6,66.2
			L143.6,66.2z"/>
		<path class="st9" d="M123.6,26.8c0-2.5,2-4.5,4.5-4.5c2.5,0,4.5,2,4.5,4.5c0,2.5-2,4.5-4.5,4.5C125.6,31.4,123.6,29.3,123.6,26.8
			L123.6,26.8z"/>
	</g>
	<g>
		<path class="st23" d="M159.7,29.5L177,53.5c0-1.6-0.1-2.8,0.9-4.2l3.6-5L167,24.2L159.7,29.5z"/>
		<path class="st24" d="M196.1,24.2l-14.6,20.1l3.6,5c0.3,0.4,0.6,0.9,0.7,1.4c0,0,0,0,0,0l0,0c0.1,0.4,0.2,0.9,0.2,1.3v1.4
			l17.4-23.9L196.1,24.2z"/>
		<path class="st25" d="M177.9,49.3l7.3,0l-3.6-5L177.9,49.3z M177.3,50.5c-0.2,0.5-0.3,1-0.3,1.6V52
			C177,51.5,177.1,50.9,177.3,50.5 M185.9,50.7C185.9,50.7,185.9,50.7,185.9,50.7C185.9,50.7,185.9,50.7,185.9,50.7 M185.9,50.7
			c0.1,0.4,0.2,0.8,0.2,1.3v0C186.1,51.6,186,51.1,185.9,50.7"/>
		<path class="st26" d="M186.1,51.7v14c0,2.7-2,5-4.5,5c-2.5,0-4.5-2.2-4.5-5v-14"/>
		<path class="st27" d="M177.9,49.3c-0.3,0.4-0.5,0.8-0.6,1.2C177.4,50.1,177.6,49.7,177.9,49.3L177.9,49.3 M185.3,54.6L185.3,54.6
			c-0.2,0.3-0.4,0.5-0.5,0.6C184.9,55,185.1,54.8,185.3,54.6 M178.4,55.2c0.4,0.4,0.8,0.7,1.3,0.9c-0.3-0.1-0.5-0.3-0.7-0.4
			C178.7,55.5,178.5,55.3,178.4,55.2 M183.5,56.1c-0.6,0.3-1.3,0.4-1.9,0.4c0,0,0,0,0,0C182.2,56.5,182.9,56.4,183.5,56.1"/>
		<path class="st28" d="M177,52c0-2.5,2-4.5,4.5-4.5c2.5,0,4.5,2,4.5,4.5s-2,4.5-4.5,4.5C179.1,56.5,177,54.5,177,52z"/>
		<path class="st15" d="M158.8,26.9c0-2.5,2-4.5,4.5-4.5c2.5,0,4.5,2,4.5,4.5s-2,4.5-4.5,4.5C160.8,31.4,158.8,29.4,158.8,26.9
			L158.8,26.9z"/>
		<path class="st29" d="M177,66.2c0-2.5,2-4.5,4.5-4.5c2.5,0,4.5,2,4.5,4.5c0,2.5-2,4.5-4.5,4.5C179.1,70.7,177,68.7,177,66.2z"/>
		<path class="st30" d="M195.3,26.9c0-2.5,2-4.5,4.5-4.5s4.5,2,4.5,4.5s-2,4.5-4.5,4.5S195.3,29.4,195.3,26.9L195.3,26.9z"/>
	</g>
	<g>
		<rect x="213" y="26.8" class="st17" width="9" height="39.4"/>
		<polygon class="st31" points="217.5,22.4 243.8,22.4 243.8,31.4 222.1,31.4 		"/>
		<path class="st32" d="M217.5,22.4c-2.5,0-4.5,2-4.5,4.5c0,2.5,2,4.5,4.5,4.5h4.5v-4.5C222.1,24.4,220,22.4,217.5,22.4"/>
		<rect x="222.1" y="42" class="st33" width="17.9" height="9"/>
		<path class="st34" d="M222.1,42h-4.5c-2.5,0-4.5,2-4.5,4.5c0,2.5,2,4.5,4.5,4.5h4.5V42"/>
		<path class="st16" d="M213,66.2c0-2.5,2-4.5,4.5-4.5c2.5,0,4.5,2,4.5,4.5c0,2.5-2,4.5-4.5,4.5C215,70.7,213,68.7,213,66.2z"/>
		<path class="st9" d="M213,26.9c0-2.5,2-4.5,4.5-4.5c2.5,0,4.5,2,4.5,4.5s-2,4.5-4.5,4.5C215,31.4,213,29.4,213,26.9L213,26.9z"/>
		<path class="st21" d="M239.9,26.8c0-2.5,2-4.5,4.5-4.5c2.5,0,4.5,2,4.5,4.5c0,2.5-2,4.5-4.5,4.5C241.9,31.4,239.9,29.3,239.9,26.8
			L239.9,26.8z"/>
		
			<ellipse transform="matrix(0.9997 -2.378920e-02 2.378920e-02 0.9997 -1.0396 5.7206)" class="st5" cx="239.9" cy="46.6" rx="4.5" ry="4.5"/>
	</g>
	<g>
		<rect x="288.9" y="26.6" class="st29" width="9" height="25.8"/>
		<rect x="255.9" y="26.6" class="st35" width="9" height="25.8"/>
		<path class="st12" d="M297.9,52.7l-9,0c0,5.5-5.9,10.1-12,10.1c0,0,0,0,0,0c0,0,0,0,0,0c-6.2,0-11.9-4.6-11.9-10.2h-9
			c0,10.7,9.9,19.2,21,19.2C287.9,71.9,297.9,63.4,297.9,52.7"/>
		<path class="st36" d="M260.4,48.1c-2.5,0-4.5,2-4.5,4.5l0,0c0,2.5,2,4.5,4.5,4.5s4.5-2,4.5-4.5l0,0
			C264.9,50.2,262.9,48.1,260.4,48.1"/>
		<path class="st37" d="M293.4,48.1c-2.5,0-4.5,2-4.5,4.5c0,0,0,0,0,0c0,2.5,2,4.5,4.5,4.5c2.5,0,4.5-2,4.5-4.5l0,0
			C297.9,50.2,295.9,48.1,293.4,48.1"/>
		<path class="st30" d="M255.9,26.6c0-2.5,2-4.5,4.5-4.5c2.5,0,4.5,2,4.5,4.5s-2,4.5-4.5,4.5C257.9,31.1,255.9,29.1,255.9,26.6z"/>
		<path class="st23" d="M288.9,26.6c0-2.5,2-4.5,4.5-4.5c2.5,0,4.5,2,4.5,4.5s-2,4.5-4.5,4.5C290.9,31.1,288.9,29.1,288.9,26.6z"/>
	</g>
	<g>
		<path class="st11" d="M305.9,66.2c0,2.5,2,4.5,4.5,4.5l0,0C307.9,70.7,305.9,68.7,305.9,66.2V26.9h9v34.8"/>
		<polyline class="st12" points="314.9,61.7 333.7,61.7 333.7,70.7 310.4,70.7 		"/>
		<path class="st13" d="M314.9,61.7h-4.5c-2.5,0-4.5,2-4.5,4.5c0,2.5,2,4.5,4.5,4.5l0,0c2.5,0,4.5-2,4.5-4.5V61.7"/>
		<path class="st14" d="M305.9,26.9c0-2.5,2-4.5,4.5-4.5c2.5,0,4.5,2,4.5,4.5s-2,4.5-4.5,4.5C307.9,31.4,305.9,29.4,305.9,26.9
			L305.9,26.9z"/>
		
			<ellipse transform="matrix(0.9997 -2.378920e-02 2.378920e-02 0.9997 -1.481 7.9567)" class="st15" cx="333.7" cy="66.2" rx="4.5" ry="4.5"/>
	</g>
</g>
<g>
	<polyline class="st38" points="19.8,108.5 19.8,147.8 28.8,143.3 28.8,108.5 	"/>
	<polygon class="st39" points="28.8,113 50.5,113 50.5,103.9 24.3,103.9 	"/>
	<path class="st40" d="M24.3,103.9c-2.5,0-4.5,2-4.5,4.5c0,2.5,2,4.5,4.5,4.5h4.5v-4.5C28.8,106,26.8,103.9,24.3,103.9"/>
	<polygon class="st23" points="24.3,152.3 50.5,152.3 50.5,143.3 28.8,143.3 	"/>
	<path class="st40" d="M28.8,143.3h-4.5c-2.5,0-4.5,2-4.5,4.5c0,2.5,2,4.5,4.5,4.5l0,0c2.5,0,4.5-2,4.5-4.5V143.3"/>
	<polyline class="st26" points="46.7,132.7 28.8,132.7 28.8,123.6 46.7,123.6 	"/>
	<path class="st41" d="M28.8,123.6h-4.5c-2.5,0-4.5,2-4.5,4.5c0,2.5,2,4.5,4.5,4.5h4.5V123.6"/>
	<path class="st15" d="M46,147.8c0-2.5,2-4.5,4.5-4.5c2.5,0,4.5,2,4.5,4.5s-2,4.5-4.5,4.5C48,152.3,46,150.3,46,147.8z"/>
	<path class="st42" d="M19.8,108.4c0-2.5,2-4.5,4.5-4.5c2.5,0,4.5,2,4.5,4.5c0,2.5-2,4.5-4.5,4.5C21.8,112.9,19.8,110.9,19.8,108.4
		L19.8,108.4z"/>
	<path class="st29" d="M19.8,147.8c0-2.5,2-4.5,4.5-4.5c2.5,0,4.5,2,4.5,4.5s-2,4.5-4.5,4.5C21.8,152.3,19.8,150.3,19.8,147.8z"/>
	<path class="st43" d="M46,108.5c0-2.5,2-4.5,4.5-4.5c2.5,0,4.5,2,4.5,4.5s-2,4.5-4.5,4.5C48,113,46,111,46,108.5L46,108.5z"/>
	<path class="st14" d="M42.2,128.1c0-2.5,2-4.5,4.5-4.5c2.5,0,4.5,2,4.5,4.5s-2,4.5-4.5,4.5C44.2,132.7,42.2,130.6,42.2,128.1z"/>
</g>
<g>
	<path class="st26" d="M63.9,111.3l13.8,16.8l5.8-7.1l-12.6-15.4L63.9,111.3z M89.3,128.1l-5.8,7.1l12.6,15.4l7-5.7L89.3,128.1z"/>
	<path class="st23" d="M96.1,105.6L83.5,121l5.8,7.1l13.8-16.8L96.1,105.6z M77.7,128.1l-13.8,16.8l7,5.7l12.6-15.4L77.7,128.1z"/>
	<polyline class="st44" points="83.5,121 77.7,128.1 83.5,135.3 89.3,128.1 83.5,121 	"/>
	<path class="st38" d="M62.8,108.5c0-2.5,2-4.5,4.5-4.5c2.5,0,4.5,2,4.5,4.5s-2,4.5-4.5,4.5C64.9,113,62.8,111,62.8,108.5
		L62.8,108.5z"/>
	<circle class="st42" cx="99.6" cy="147.8" r="4.5"/>
	<path class="st45" d="M95.1,108.5c0-2.5,2-4.5,4.5-4.5c2.5,0,4.5,2,4.5,4.5s-2,4.5-4.5,4.5C97.1,113,95.1,111,95.1,108.5
		L95.1,108.5z"/>
	<path class="st39" d="M62.8,147.8c0-2.5,2-4.5,4.5-4.5c2.5,0,4.5,2,4.5,4.5s-2,4.5-4.5,4.5C64.9,152.3,62.8,150.3,62.8,147.8z"/>
</g>
<g>
	<rect x="111.1" y="108.5" class="st0" width="9" height="39.3"/>
	<path class="st1" d="M131.8,103.9C131.8,103.9,131.8,103.9,131.8,103.9c2.5,0,4.5,2,4.5,4.5s-2,4.5-4.5,4.5l0,0
		c1.1,0,2.2,0.2,3.2,0.6c1.4,0.6,2.7,1.6,3.6,2.9c0.4,0.6,0.8,1.4,1,2.1c0.2,0.8,0.4,1.6,0.4,2.4c0,1.1-0.2,2.2-0.6,3.2
		c-0.6,1.4-1.6,2.7-2.9,3.6c-0.6,0.4-1.4,0.8-2.1,1c-0.8,0.2-1.6,0.4-2.4,0.4c2.5,0,4.5,2,4.5,4.5c0,2.5-2,4.5-4.5,4.5l0,0
		c0,0,0,0,0,0c2.4,0,4.6-0.5,6.7-1.3c3.1-1.3,5.7-3.5,7.5-6.2c0.9-1.4,1.7-2.9,2.2-4.5c0.5-1.6,0.8-3.3,0.8-5.1
		c0-2.4-0.5-4.6-1.3-6.7c-1.3-3.1-3.5-5.7-6.2-7.5c-1.4-0.9-2.9-1.7-4.5-2.2C135.3,104.2,133.6,103.9,131.8,103.9"/>
	<line class="st2" x1="131.8" y1="129.2" x2="131.8" y2="129.2"/>
	<rect x="120.1" y="129.2" class="st2" width="11.7" height="9"/>
	<path class="st3" d="M120.1,129.2h-4.5c-2.5,0-4.5,2-4.5,4.5c0,2.5,2,4.5,4.5,4.5h4.5V129.2"/>
	<path class="st4" d="M131.8,129.2L131.8,129.2c-2.5,0-4.5,2-4.5,4.5c0,2.5,2,4.5,4.5,4.5l0,0c2.5,0,4.5-2,4.5-4.5
		C136.3,131.2,134.3,129.2,131.8,129.2"/>
	<path class="st5" d="M115.6,103.9"/>
	<line class="st5" x1="131.8" y1="103.9" x2="131.8" y2="103.9"/>
	<polygon class="st5" points="131.8,103.9 115.6,103.9 120.1,113 131.8,113 	"/>
	<path class="st6" d="M111.1,108.5c0,2.5,2,4.5,4.5,4.5h4.5v-4.5L111.1,108.5z"/>
	<path class="st7" d="M131.8,103.9L131.8,103.9c-2.5,0-4.5,2-4.5,4.5s2,4.5,4.5,4.5l0,0c2.5,0,4.5-2,4.5-4.5
		C136.3,106,134.3,103.9,131.8,103.9"/>
	<path class="st8" d="M111.1,108.5c0-2.5,2-4.5,4.5-4.5c2.5,0,4.5,2,4.5,4.5s-2,4.5-4.5,4.5C113.1,113,111.1,111,111.1,108.5
		L111.1,108.5z"/>
	<path class="st9" d="M127.3,108.5c0-2.5,2-4.5,4.5-4.5c2.5,0,4.5,2,4.5,4.5s-2,4.5-4.5,4.5C129.3,113,127.3,111,127.3,108.5
		L127.3,108.5z"/>
	<path class="st10" d="M111.1,147.8c0-2.5,2-4.5,4.5-4.5c2.5,0,4.5,2,4.5,4.5s-2,4.5-4.5,4.5C113.1,152.3,111.1,150.3,111.1,147.8z"
		/>
</g>
<g>
	<polyline class="st38" points="157.2,108.5 157.2,147.8 166.2,143.3 166.2,108.5 	"/>
	<polygon class="st39" points="166.2,113 187.9,113 187.9,103.9 161.7,103.9 	"/>
	<path class="st40" d="M161.7,103.9c-2.5,0-4.5,2-4.5,4.5c0,2.5,2,4.5,4.5,4.5h4.5v-4.5C166.2,106,164.2,103.9,161.7,103.9"/>
	<polygon class="st23" points="161.7,152.3 187.9,152.3 187.9,143.3 166.2,143.3 	"/>
	<path class="st40" d="M166.2,143.3h-4.5c-2.5,0-4.5,2-4.5,4.5c0,2.5,2,4.5,4.5,4.5l0,0c2.5,0,4.5-2,4.5-4.5V143.3"/>
	<polyline class="st26" points="184.1,132.7 166.2,132.7 166.2,123.6 184.1,123.6 	"/>
	<path class="st41" d="M166.2,123.6h-4.5c-2.5,0-4.5,2-4.5,4.5c0,2.5,2,4.5,4.5,4.5h4.5V123.6"/>
	<path class="st15" d="M183.4,147.8c0-2.5,2-4.5,4.5-4.5c2.5,0,4.5,2,4.5,4.5s-2,4.5-4.5,4.5C185.4,152.3,183.4,150.3,183.4,147.8z"
		/>
	<path class="st42" d="M157.2,108.4c0-2.5,2-4.5,4.5-4.5c2.5,0,4.5,2,4.5,4.5c0,2.5-2,4.5-4.5,4.5
		C159.2,112.9,157.2,110.9,157.2,108.4L157.2,108.4z"/>
	<path class="st29" d="M157.2,147.8c0-2.5,2-4.5,4.5-4.5c2.5,0,4.5,2,4.5,4.5s-2,4.5-4.5,4.5C159.2,152.3,157.2,150.3,157.2,147.8z"
		/>
	<path class="st43" d="M183.4,108.5c0-2.5,2-4.5,4.5-4.5c2.5,0,4.5,2,4.5,4.5s-2,4.5-4.5,4.5C185.4,113,183.4,111,183.4,108.5
		L183.4,108.5z"/>
	<path class="st14" d="M179.5,128.1c0-2.5,2-4.5,4.5-4.5c2.5,0,4.5,2,4.5,4.5s-2,4.5-4.5,4.5C181.6,132.7,179.5,130.6,179.5,128.1z"
		/>
</g>
<g>
	<rect x="200.2" y="108.5" class="st0" width="9" height="39.3"/>
	<path class="st46" d="M221,127.2c0.5-0.2,1-0.3,1.5-0.3"/>
	<path class="st46" d="M218.3,133.1C218.3,133.1,218.3,133.1,218.3,133.1C218.3,133.1,218.3,133,218.3,133.1
		C218.3,133,218.3,133,218.3,133.1C218.3,133,218.3,133,218.3,133.1c-0.2-0.6-0.3-1.2-0.3-1.8c0,0,0,0,0,0c0,0,0,0,0,0
		c0-0.6,0.2-1.2,0.5-1.7c0.3-0.5,0.6-1.1,1.1-1.5c0.4-0.3,0.8-0.6,1.3-0.8c0,0,0,0,0,0c0,0,0,0,0,0"/>
	<polygon class="st46" points="222.5,126.9 209.2,126.9 209.2,136 222.8,136 	"/>
	<path class="st47" d="M209.2,126.9h-4.5c-2.5,0-4.5,2-4.5,4.5c0,2.5,2,4.5,4.5,4.5h4.5V126.9"/>
	<path class="st48" d="M222.5,126.9C222.5,126.9,222.5,126.9,222.5,126.9L222.5,126.9L222.5,126.9
		C222.6,126.9,222.5,126.9,222.5,126.9"/>
	<path class="st48" d="M231.6,150.6L220.3,136h2.2h1.1c0,0,0,0,0,0c2.2,0,4.3-0.4,6.2-1.3c0.2-0.1,0.4-0.2,0.6-0.3l8.2,10.6
		L231.6,150.6z"/>
	<path class="st20" d="M209.2,113h14.4c7.9,0,9.7,11.3,2.1,13.6c-0.7,0.2-1.3,0.3-2.1,0.3h-1.1c0.1,0,0.1,0,0.2,0
		c1.3,0.1,2.6,0.7,3.4,1.8l4.4,5.7c5.5-2.6,9.1-8.2,9.1-14.5c0-8.8-7.2-16-16-16c0,0,0,0,0,0h-18.9L209.2,113z"/>
	<polygon class="st49" points="204.7,113 209.2,113 209.2,108.5 	"/>
	<path class="st50" d="M222.6,126.9L222.6,126.9c0,0,0.1,0,0.2,0C222.7,126.9,222.6,126.9,222.6,126.9 M224.5,127.4
		c0.6,0.3,1.1,0.7,1.5,1.1C225.6,128.1,225.1,127.7,224.5,127.4 M226.1,128.7c0.6,0.8,0.9,1.7,0.9,2.7c0,2.5-2,4.5-4.5,4.5h1.1
		c0,0,0,0,0,0c2.2,0,4.3-0.4,6.2-1.3c0.2-0.1,0.4-0.2,0.6-0.3L226.1,128.7"/>
	<path class="st51" d="M218,131.5c0-2.5,2-4.5,4.5-4.5c2.5,0,4.5,2,4.5,4.5s-2,4.5-4.5,4.5C220.1,136,218,134,218,131.5L218,131.5z"
		/>
	<path class="st9" d="M230.6,147.8c0-2.5,2-4.5,4.5-4.5c2.5,0,4.5,2,4.5,4.5s-2,4.5-4.5,4.5C232.7,152.3,230.6,150.3,230.6,147.8z"
		/>
	
		<ellipse transform="matrix(0.9985 -5.530018e-02 5.530018e-02 0.9985 -7.8602 11.5476)" class="st10" cx="204.7" cy="147.8" rx="4.5" ry="4.5"/>
	<path class="st8" d="M200.2,108.5c0-2.5,2-4.5,4.5-4.5c2.5,0,4.5,2,4.5,4.5c0,2.5-2,4.5-4.5,4.5C202.2,113,200.2,111,200.2,108.5
		L200.2,108.5z"/>
</g>
<g>
	<rect x="248.2" y="108.3" class="st12" width="9" height="39.3"/>
	<path class="st43" d="M248.2,108.3c0-2.5,2-4.5,4.5-4.5s4.5,2,4.5,4.5c0,2.5-2,4.5-4.5,4.5S248.2,110.8,248.2,108.3L248.2,108.3z"
		/>
	<path class="st15" d="M248.2,147.7c0-2.5,2-4.5,4.5-4.5s4.5,2,4.5,4.5c0,2.5-2,4.5-4.5,4.5S248.2,150.2,248.2,147.7L248.2,147.7z"
		/>
</g>
<g>
	<polyline class="st38" points="267.1,108.5 267.1,147.8 276.1,143.3 276.1,108.5 	"/>
	<polygon class="st39" points="276.1,113 297.8,113 297.8,103.9 271.6,103.9 	"/>
	<path class="st40" d="M271.6,103.9c-2.5,0-4.5,2-4.5,4.5c0,2.5,2,4.5,4.5,4.5h4.5v-4.5C276.1,106,274.1,103.9,271.6,103.9"/>
	<polygon class="st23" points="271.6,152.3 297.8,152.3 297.8,143.3 276.1,143.3 	"/>
	<path class="st40" d="M276.1,143.3h-4.5c-2.5,0-4.5,2-4.5,4.5c0,2.5,2,4.5,4.5,4.5l0,0c2.5,0,4.5-2,4.5-4.5V143.3"/>
	<polyline class="st26" points="294,132.7 276.1,132.7 276.1,123.6 294,123.6 	"/>
	<path class="st41" d="M276.1,123.6h-4.5c-2.5,0-4.5,2-4.5,4.5c0,2.5,2,4.5,4.5,4.5h4.5V123.6"/>
	<path class="st15" d="M293.3,147.8c0-2.5,2-4.5,4.5-4.5c2.5,0,4.5,2,4.5,4.5s-2,4.5-4.5,4.5C295.3,152.3,293.3,150.3,293.3,147.8z"
		/>
	<path class="st42" d="M267.1,108.4c0-2.5,2-4.5,4.5-4.5c2.5,0,4.5,2,4.5,4.5c0,2.5-2,4.5-4.5,4.5
		C269.1,112.9,267.1,110.9,267.1,108.4L267.1,108.4z"/>
	<path class="st29" d="M267.1,147.8c0-2.5,2-4.5,4.5-4.5c2.5,0,4.5,2,4.5,4.5s-2,4.5-4.5,4.5C269.1,152.3,267.1,150.3,267.1,147.8z"
		/>
	<path class="st43" d="M293.3,108.5c0-2.5,2-4.5,4.5-4.5c2.5,0,4.5,2,4.5,4.5s-2,4.5-4.5,4.5C295.3,113,293.3,111,293.3,108.5
		L293.3,108.5z"/>
	<path class="st14" d="M289.5,128.1c0-2.5,2-4.5,4.5-4.5c2.5,0,4.5,2,4.5,4.5s-2,4.5-4.5,4.5C291.5,132.7,289.5,130.6,289.5,128.1z"
		/>
</g>
<g>
	<polygon class="st5" points="343.5,135.5 318.1,105.6 319.2,120.8 344.6,150.7 	"/>
	<polygon class="st46" points="343.5,108.5 343.5,135.5 352.5,147.8 352.5,108.5 	"/>
	<path class="st52" d="M343.5,135.5v12.3l9,0.2c0-0.1,0-0.1,0-0.2v0c0-1-0.4-2-1.1-2.9L343.5,135.5"/>
	<polygon class="st0" points="310.1,108.5 310.1,147.8 319.2,147.8 319.2,120.8 	"/>
	<path class="st53" d="M314.7,103.9c-2.4,0-4.4,1.9-4.5,4.4c0,0.1,0,0.1,0,0.2v0c0,1,0.4,2,1.1,2.9l8,9.4v-12.3
		C319.2,106,317.1,103.9,314.7,103.9"/>
	<path class="st22" d="M310.1,147.8c0-2.5,2-4.5,4.5-4.5c2.5,0,4.5,2,4.5,4.5s-2,4.5-4.5,4.5C312.2,152.3,310.1,150.3,310.1,147.8z"
		/>
	<path class="st21" d="M343.5,147.8c0-2.5,2-4.5,4.5-4.5c2.5,0,4.5,2,4.5,4.5s-2,4.5-4.5,4.5C345.5,152.3,343.5,150.3,343.5,147.8z"
		/>
	<path class="st16" d="M310.1,108.5c0-2.5,2-4.5,4.5-4.5c2.5,0,4.5,2,4.5,4.5s-2,4.5-4.5,4.5C312.2,113,310.1,111,310.1,108.5
		L310.1,108.5z"/>
	<path class="st22" d="M343.5,108.5c0-2.5,2-4.5,4.5-4.5c2.5,0,4.5,2,4.5,4.5s-2,4.5-4.5,4.5C345.5,113,343.5,111,343.5,108.5
		L343.5,108.5z"/>
</g>
<g>
	<path class="st54" d="M401.7,139.9c-0.9-0.9-2.1-1.4-3.3-1.4c-1.1,0-2.2,0.4-3.1,1.2c-1.4,1.3-3.1,2.4-4.9,3.2
		c-1.8,0.7-3.8,1.1-6,1.1c-2.2,0-4.3-0.4-6.2-1.2c-2.8-1.2-5.3-3.2-7-5.8c-0.9-1.3-1.5-2.7-2-4.2c-0.5-1.5-0.7-3.1-0.7-4.7l0,0
		c0-2.5-2-4.5-4.5-4.5s-4.5,2-4.5,4.5l0,0c0,3.4,0.7,6.7,2,9.7c1.9,4.5,5.1,8.3,9,11c2,1.3,4.2,2.4,6.5,3.1c2.3,0.7,4.8,1.1,7.4,1.1
		c0,0,0,0,0,0c0,0,0,0,0,0c3.3,0,6.4-0.6,9.3-1.8c2.9-1.2,5.5-2.9,7.7-4.9C403.3,144.6,403.4,141.7,401.7,139.9L401.7,139.9z"/>
	<path class="st38" d="M401.7,110.1c-2.2-2.2-4.9-3.9-7.8-5.1c-2.9-1.2-6.1-1.9-9.5-1.9c0,0,0,0,0,0c0,0,0,0,0,0
		c-3.4,0-6.7,0.7-9.7,2c-4.5,1.9-8.3,5.1-11,9c-1.3,2-2.4,4.2-3.1,6.5c-0.7,2.3-1.1,4.8-1.1,7.4l0,0c0,2.5,2,4.5,4.5,4.5
		s4.5-2,4.5-4.5l0,0c0-2.2,0.4-4.3,1.2-6.2c1.2-2.8,3.2-5.3,5.8-7c1.3-0.9,2.7-1.5,4.2-2c1.5-0.5,3.1-0.7,4.7-0.7
		c2.2,0,4.2,0.4,6,1.2c1.9,0.8,3.5,1.9,5,3.3c0.9,0.8,2,1.3,3.1,1.3c1.2,0,2.4-0.5,3.3-1.4C403.6,114.7,403.5,111.9,401.7,110.1
		L401.7,110.1z"/>
	<path class="st55" d="M364,123.6c-2.5,0-4.5,2-4.5,4.5c0,2.5,2,4.5,4.5,4.5s4.5-2,4.5-4.5C368.5,125.6,366.5,123.6,364,123.6"/>
	<path class="st15" d="M394.1,113.4c0-2.5,2-4.5,4.5-4.5c2.5,0,4.5,2,4.5,4.5s-2,4.5-4.5,4.5C396.1,117.9,394.1,115.9,394.1,113.4
		L394.1,113.4z"/>
	<path class="st39" d="M393.9,143c0-2.5,2-4.5,4.5-4.5c2.5,0,4.5,2,4.5,4.5s-2,4.5-4.5,4.5C395.9,147.5,393.9,145.5,393.9,143z"/>
	<path class="st23" d="M359.5,128.1c0-2.5,2-4.5,4.5-4.5c2.5,0,4.5,2,4.5,4.5s-2,4.5-4.5,4.5C361.5,132.6,359.5,130.6,359.5,128.1
		L359.5,128.1z"/>
</g>
<g>
	<polyline class="st38" points="411.3,108.5 411.3,147.8 420.3,143.3 420.3,108.5 	"/>
	<polygon class="st39" points="420.3,113 442,113 442,103.9 415.8,103.9 	"/>
	<path class="st40" d="M415.8,103.9c-2.5,0-4.5,2-4.5,4.5c0,2.5,2,4.5,4.5,4.5h4.5v-4.5C420.3,106,418.3,103.9,415.8,103.9"/>
	<polygon class="st23" points="415.8,152.3 442,152.3 442,143.3 420.3,143.3 	"/>
	<path class="st40" d="M420.3,143.3h-4.5c-2.5,0-4.5,2-4.5,4.5c0,2.5,2,4.5,4.5,4.5l0,0c2.5,0,4.5-2,4.5-4.5V143.3"/>
	<polyline class="st26" points="438.2,132.7 420.3,132.7 420.3,123.6 438.2,123.6 	"/>
	<path class="st41" d="M420.3,123.6h-4.5c-2.5,0-4.5,2-4.5,4.5c0,2.5,2,4.5,4.5,4.5h4.5V123.6"/>
	<path class="st15" d="M437.5,147.8c0-2.5,2-4.5,4.5-4.5c2.5,0,4.5,2,4.5,4.5s-2,4.5-4.5,4.5C439.5,152.3,437.5,150.3,437.5,147.8z"
		/>
	<path class="st42" d="M411.3,108.4c0-2.5,2-4.5,4.5-4.5c2.5,0,4.5,2,4.5,4.5c0,2.5-2,4.5-4.5,4.5
		C413.3,112.9,411.3,110.9,411.3,108.4L411.3,108.4z"/>
	<path class="st29" d="M411.3,147.8c0-2.5,2-4.5,4.5-4.5c2.5,0,4.5,2,4.5,4.5s-2,4.5-4.5,4.5C413.3,152.3,411.3,150.3,411.3,147.8z"
		/>
	<path class="st43" d="M437.5,108.5c0-2.5,2-4.5,4.5-4.5c2.5,0,4.5,2,4.5,4.5s-2,4.5-4.5,4.5C439.5,113,437.5,111,437.5,108.5
		L437.5,108.5z"/>
	<path class="st14" d="M433.6,128.1c0-2.5,2-4.5,4.5-4.5c2.5,0,4.5,2,4.5,4.5s-2,4.5-4.5,4.5C435.7,132.7,433.6,130.6,433.6,128.1z"
		/>
</g>
<g>
	<path class="st48" d="M492.1,139.2c0-9.7-9-13.6-18.4-15.5c-3.2-0.7-8.8-2.2-8.8-5.5c0,0,0-0.1,0-0.1l-9-0.2c0,0.1,0,0.2,0,0.3
		c0,1.2,0.2,2.4,0.5,3.5c4.1,13.8,26.7,8.9,26.7,17.5l0,0H492.1z"/>
	<path class="st33" d="M492.1,139.2c0,8.1-6.3,14.8-17.5,14.8c-7,0-12.6-2.1-18.3-5.9l4.9-7.6c4.2,2.8,8.1,4.4,13.4,4.4
		c6.3,0,8.5-2.8,8.5-5.7C484.2,139.2,491,139.2,492.1,139.2z"/>
	<path class="st56" d="M487.6,134.6c-2.5,0-4.5,2-4.5,4.5l0,0c0,2.5,2,4.5,4.5,4.5s4.5-2,4.5-4.5l0,0
		C492.1,136.7,490.1,134.6,487.6,134.6"/>
	<path class="st57" d="M483.3,115.4c-5.4-2.8-8.1-3.2-10.9-3.2c-5.9,0-7.3,2.1-7.4,5.8l-9-0.2c0.4-14.7,15-16.8,25.6-13.1
		c2.1,0.7,4.1,1.7,5.9,2.6L483.3,115.4z"/>
	<path class="st58" d="M460.4,113.4c-2.4,0-4.5,2-4.5,4.4c0,0,0,0,0,0c-0.1,2.5,1.9,4.6,4.4,4.6c0,0,0.1,0,0.1,0
		c2.4,0,4.5-1.9,4.5-4.4c0,0,0,0,0,0c0.1-2.5-1.9-4.6-4.4-4.6C460.5,113.4,460.4,113.4,460.4,113.4"/>
	<path class="st9" d="M480.8,111.3c0-2.5,2-4.5,4.5-4.5s4.5,2,4.5,4.5c0,2.5-2,4.5-4.5,4.5S480.8,113.8,480.8,111.3L480.8,111.3z"/>
	<path class="st10" d="M454.3,144.3c0-2.5,2-4.5,4.5-4.5c2.5,0,4.5,2,4.5,4.5s-2,4.5-4.5,4.5C456.3,148.8,454.3,146.8,454.3,144.3z"
		/>
</g>
</svg>
