<?xml version="1.0" encoding="utf-8"?>
<!-- Generator: Adobe Illustrator 22.1.0, SVG Export Plug-In . SVG Version: 6.00 Build 0)  -->
<svg version="1.1" id="Layer_1" xmlns="http://www.w3.org/2000/svg" xmlns:xlink="http://www.w3.org/1999/xlink" x="0px" y="0px"
	 viewBox="0 0 512 512" style="enable-background:new 0 0 512 512;" xml:space="preserve">
<style type="text/css">
	.st0{fill:none;stroke:#000000;stroke-miterlimit:10;}
</style>
<line class="st0" x1="102.9" y1="200.5" x2="102.9" y2="240.8"/>
<line class="st0" x1="102.9" y1="225.6" x2="118.8" y2="225.6"/>
<line class="st0" x1="102.9" y1="200.5" x2="118.8" y2="200.5"/>
<path class="st0" d="M118.8,200.5c6.9,0,12.5,5.6,12.5,12.5s-5.6,12.5-12.5,12.5"/>
<line class="st0" x1="147.8" y1="200.5" x2="147.8" y2="240.1"/>
<line class="st0" x1="147.8" y1="240.1" x2="171" y2="240.1"/>
<line class="st0" x1="184.8" y1="240.1" x2="204.6" y2="200.5"/>
<line class="st0" x1="224.4" y1="240.1" x2="204.6" y2="200.5"/>
<line class="st0" x1="203.3" y1="228.2" x2="218.5" y2="228.2"/>
<line class="st0" x1="258.1" y1="225.6" x2="239.6" y2="200.5"/>
<line class="st0" x1="258.1" y1="225.6" x2="276.6" y2="200.5"/>
<line class="st0" x1="258.1" y1="225.6" x2="258.1" y2="240.1"/>
<line class="st0" x1="293.8" y1="200.5" x2="293.8" y2="240.1"/>
<line class="st0" x1="315.6" y1="220.3" x2="293.8" y2="220.3"/>
<line class="st0" x1="320.9" y1="200.5" x2="293.8" y2="200.5"/>
<line class="st0" x1="336" y1="200.5" x2="336" y2="226.9"/>
<line class="st0" x1="369.1" y1="200.8" x2="369.1" y2="227.2"/>
<path class="st0" d="M369.1,226.9c0,7.8-7.4,14.2-16.5,14.2s-16.5-6.4-16.5-14.2"/>
<line class="st0" x1="385.6" y1="201.2" x2="385.6" y2="240.1"/>
<line class="st0" x1="408.7" y1="240.1" x2="385.6" y2="240.1"/>
<line class="st0" x1="121.1" y1="281.1" x2="136.9" y2="281.1"/>
<line class="st0" x1="57" y1="281.1" x2="30.6" y2="281.1"/>
<line class="st0" x1="193.1" y1="281.1" x2="166.7" y2="281.1"/>
<line class="st0" x1="302" y1="281.1" x2="275.6" y2="281.1"/>
<line class="st0" x1="444.7" y1="281.1" x2="418.2" y2="281.1"/>
<line class="st0" x1="227.4" y1="281.1" x2="210.2" y2="281.1"/>
<line class="st0" x1="121.1" y1="281.1" x2="121.1" y2="320.7"/>
<line class="st0" x1="121.1" y1="306.2" x2="136.9" y2="306.2"/>
<path class="st0" d="M136.9,281.1c6.9,0,12.5,5.6,12.5,12.5s-5.6,12.5-12.5,12.5"/>
<line class="st0" x1="210.2" y1="281.1" x2="210.2" y2="320.7"/>
<path class="st0" d="M227.4,281.1c7.1,0,12.9,5.2,12.9,11.7s-5.8,11.4-12.9,11.4"/>
<line class="st0" x1="31" y1="281.4" x2="31" y2="321"/>
<line class="st0" x1="57.4" y1="321" x2="31" y2="321"/>
<line class="st0" x1="53.1" y1="300.9" x2="30.6" y2="300.9"/>
<line class="st0" x1="167" y1="281.4" x2="167" y2="321"/>
<line class="st0" x1="257.1" y1="281.4" x2="257.1" y2="321"/>
<line class="st0" x1="193.4" y1="321" x2="167" y2="321"/>
<line class="st0" x1="189.1" y1="300.9" x2="166.7" y2="300.9"/>
<line class="st0" x1="275.9" y1="281.4" x2="275.9" y2="321"/>
<line class="st0" x1="302.4" y1="321" x2="275.9" y2="321"/>
<line class="st0" x1="298.1" y1="300.9" x2="275.6" y2="300.9"/>
<line class="st0" x1="418.6" y1="281.4" x2="418.6" y2="321"/>
<line class="st0" x1="445" y1="321" x2="418.6" y2="321"/>
<line class="st0" x1="440.7" y1="300.9" x2="418.2" y2="300.9"/>
<line class="st0" x1="72.9" y1="281.1" x2="105.9" y2="320.7"/>
<line class="st0" x1="105.9" y1="281.1" x2="72.9" y2="320.7"/>
<line class="st0" x1="227.4" y1="304.2" x2="210.2" y2="304.2"/>
<line class="st0" x1="227.4" y1="304.2" x2="240" y2="320.7"/>
<line class="st0" x1="318.5" y1="320.7" x2="318.5" y2="281.1"/>
<line class="st0" x1="351.5" y1="281.1" x2="351.5" y2="320.7"/>
<line class="st0" x1="318.5" y1="281.1" x2="351.5" y2="320.7"/>
<path class="st0" d="M402.1,286.8c-3.7-3.6-8.7-5.7-14.2-5.7c-11.3,0-20.5,9.2-20.5,20.5"/>
<path class="st0" d="M402.1,316.3c-3.7,3.6-8.7,5.7-14.2,5.7c-11.3,0-20.5-9.2-20.5-20.5"/>
<path class="st0" d="M486,311c0.8,13.7-23.4,11.3-27.5,4.8"/>
<path class="st0" d="M460.1,290.8c0,14.5,25,5.7,25.9,20.2"/>
<path class="st0" d="M483.5,284.3c0,0-23.4-10.5-23.4,6.5"/>
</svg>
